<?xml version="1.0" standalone="no"?><!DOCTYPE svg PUBLIC "-//W3C//DTD SVG 1.1//EN" "http://www.w3.org/Graphics/SVG/1.1/DTD/svg11.dtd"><svg t="1679487000036" class="icon" viewBox="0 0 1024 1024" version="1.1" xmlns="http://www.w3.org/2000/svg" p-id="2664" xmlns:xlink="http://www.w3.org/1999/xlink" width="200" height="200"><path d="M568.533333 673.066667a170.666667 170.666667 0 1 1 70.912-47.530667l56.064 78.634667a224.725333 224.725333 0 0 1 97.664 10.069333l45.141334-75.306667c-91.861333-71.808-93.44-181.248 0-253.866666l-44.8-74.666667C678.4 351.914667 576.938667 292.864 557.909333 170.666667h-91.733333C447.146667 291.541333 346.752 352.554667 230.4 310.442667l-44.8 74.666666c91.904 71.765333 93.44 181.205333 0.042667 253.866667l44.8 74.666667c115.157333-41.557333 216.618667 17.493333 235.648 139.690666H597.333333a42.666667 42.666667 0 0 1 0 85.333334h-170.666666a42.666667 42.666667 0 0 1-42.666667-42.666667c0-100.010667-64-137.258667-150.357333-90.453333a42.666667 42.666667 0 0 1-56.917334-15.616l-85.333333-142.293334a42.666667 42.666667 0 0 1 16.298667-59.434666c83.456-45.226667 82.218667-107.861333 0-152.405334a42.666667 42.666667 0 0 1-16.298667-59.434666l85.333333-142.293334a42.666667 42.666667 0 0 1 56.917334-15.573333C321.024 265.813333 384 226.901333 384 128a42.666667 42.666667 0 0 1 42.666667-42.666667h170.666666a42.666667 42.666667 0 0 1 42.666667 42.666667c0 100.010667 64 137.258667 150.357333 90.453333a42.666667 42.666667 0 0 1 56.917334 15.616l85.333333 142.293334a42.666667 42.666667 0 0 1-16.298667 59.434666c-83.456 45.226667-82.218667 107.861333 0 152.405334a42.666667 42.666667 0 0 1 16.298667 59.434666l-85.333333 142.293334a42.666667 42.666667 0 0 1-56.917334 15.573333c-31.317333-16.938667-70.997333-22.4-100.522666-13.098667a42.666667 42.666667 0 0 1-47.573334-15.914666l-73.728-103.424zM512 597.333333a85.333333 85.333333 0 1 0 0-170.666666 85.333333 85.333333 0 0 0 0 170.666666z" p-id="2665"></path></svg>